<?xml version="1.0" encoding="iso-8859-1"?>
<!-- Uploaded to: SVG Repo, www.svgrepo.com, Generator: SVG Repo Mixer Tools -->
<svg height="800px" width="800px" version="1.1" id="Layer_1" xmlns="http://www.w3.org/2000/svg" xmlns:xlink="http://www.w3.org/1999/xlink" 
	 viewBox="0 0 512.002 512.002" xml:space="preserve">
<g transform="translate(1)">
	<g>
		<path style="fill:#667D8C;" d="M255.01,110.935c-2.475,0-4.924-1.067-6.613-3.132l-76.8-93.867
			c-2.987-3.644-2.449-9.02,1.203-12.006c3.635-2.987,9.011-2.449,12.006,1.203l76.8,93.867c2.987,3.644,2.449,9.02-1.203,12.006
			C258.815,110.304,256.913,110.935,255.01,110.935"/>
		<path style="fill:#667D8C;" d="M254.993,110.935c-1.903,0-3.806-0.631-5.393-1.929c-3.652-2.987-4.19-8.363-1.203-12.006
			l76.8-93.867c2.987-3.652,8.363-4.19,12.006-1.203c3.652,2.987,4.19,8.363,1.203,12.006l-76.8,93.867
			C259.916,109.869,257.467,110.935,254.993,110.935"/>
	</g>
	<path style="fill:#D9D0B7;" d="M476.62,503.469H33.39c-14.276,0-25.856-11.571-25.856-25.847V179.202
		c0-14.276,11.58-25.6,25.856-25.6h443.23c14.276,0,25.847,11.324,25.847,25.6v298.419
		C502.468,491.898,490.897,503.469,476.62,503.469"/>
	<path style="fill:#7F6E5D;" d="M476.62,512.002H33.39c-18.961,0-34.389-15.42-34.389-34.372V179.202
		c0-18.825,15.428-34.133,34.389-34.133h443.23c18.953,0,34.381,15.317,34.381,34.133v298.419
		C511.001,496.582,495.573,512.002,476.62,512.002z M33.39,162.135c-9.711,0-17.323,7.501-17.323,17.067v298.419
		c0,9.549,7.774,17.314,17.323,17.314h443.23c9.549,0,17.314-7.765,17.314-17.306V179.202c0-9.574-7.612-17.067-17.314-17.067H33.39
		z"/>
	<polygon style="fill:#344148;" points="50.201,460.802 348.868,460.802 348.868,196.269 50.201,196.269 	"/>
	<polygon style="fill:#D9D0B7;" points="365.934,153.602 144.068,153.602 178.201,102.402 331.801,102.402 	"/>
	<path style="fill:#7F6E5D;" d="M381.875,162.135H128.127l45.508-68.267h162.731L381.875,162.135z M160.017,145.069h189.978
		l-22.758-34.133H182.775L160.017,145.069z"/>
	<path style="fill:#667D8C;" d="M459.801,230.402c0,18.85-15.283,34.133-34.133,34.133s-34.133-15.283-34.133-34.133
		s15.283-34.133,34.133-34.133S459.801,211.552,459.801,230.402"/>
	<path style="fill:#ECF1F1;" d="M425.668,238.935c-2.185,0-4.369-0.836-6.033-2.5c-3.337-3.328-3.337-8.73,0-12.066l24.107-24.115
		c3.337-3.328,8.738-3.328,12.066,0c3.337,3.328,3.337,8.738,0,12.066l-24.107,24.115
		C430.037,238.099,427.852,238.935,425.668,238.935"/>
	<path style="fill:#667D8C;" d="M459.801,341.335c0,18.85-15.283,34.133-34.133,34.133s-34.133-15.283-34.133-34.133
		c0-18.85,15.283-34.133,34.133-34.133S459.801,322.485,459.801,341.335"/>
	<path style="fill:#ECF1F1;" d="M425.668,384.002c-4.719,0-8.533-3.823-8.533-8.533v-34.133c0-4.71,3.814-8.533,8.533-8.533
		c4.719,0,8.533,3.823,8.533,8.533v34.133C434.201,380.179,430.387,384.002,425.668,384.002"/>
	<g>
		<path style="fill:#667D8C;" d="M454.348,460.802h-57.361c-3.012,0-5.453-2.441-5.453-5.453v-31.761
			c0-3.012,2.441-5.453,5.453-5.453h57.361c3.012,0,5.453,2.441,5.453,5.453v31.761
			C459.801,458.362,457.361,460.802,454.348,460.802"/>
		<path style="fill:#667D8C;" d="M109.934,418.135c0,4.71-3.823,8.533-8.533,8.533c-4.71,0-8.533-3.823-8.533-8.533
			s3.823-8.533,8.533-8.533C106.111,409.602,109.934,413.425,109.934,418.135"/>
		<path style="fill:#667D8C;" d="M323.268,401.069c0,4.71-3.823,8.533-8.533,8.533c-4.71,0-8.533-3.823-8.533-8.533
			c0-4.71,3.823-8.533,8.533-8.533C319.445,392.535,323.268,396.358,323.268,401.069"/>
		<path style="fill:#667D8C;" d="M203.801,375.469c0,4.71-3.823,8.533-8.533,8.533s-8.533-3.823-8.533-8.533
			c0-4.71,3.823-8.533,8.533-8.533S203.801,370.758,203.801,375.469"/>
		<path style="fill:#667D8C;" d="M280.601,264.535c0,4.71-3.823,8.533-8.533,8.533s-8.533-3.823-8.533-8.533
			c0-4.71,3.823-8.533,8.533-8.533S280.601,259.825,280.601,264.535"/>
		<path style="fill:#667D8C;" d="M118.468,238.935c0,4.71-3.823,8.533-8.533,8.533s-8.533-3.823-8.533-8.533
			s3.823-8.533,8.533-8.533S118.468,234.225,118.468,238.935"/>
		<path style="fill:#667D8C;" d="M312.234,309.702c-3.337-3.337-8.73-3.337-12.066,0l-35.473,35.473l-53.905-76.996
			c-3.2-4.565-10.778-4.565-13.978,0l-53.905,76.996l-44.006-44.006c-1.69-1.698-4.062-2.586-6.417-2.492
			c-2.398,0.111-4.634,1.22-6.178,3.063l-36.105,43.332v21.862c2.449,0,4.873-1.05,6.562-3.072l36.676-44.023l44.595,44.595
			c1.792,1.792,4.301,2.705,6.775,2.466c2.517-0.222,4.796-1.545,6.246-3.61l52.745-75.341l52.745,75.341
			c1.451,2.065,3.729,3.388,6.246,3.61c2.5,0.239,4.992-0.674,6.775-2.466l36.634-36.634l36.634,36.634
			c1.664,1.664,3.849,2.5,6.033,2.5v-20.599L312.234,309.702z"/>
	</g>
</g>
</svg>